<svg width="52" height="68" viewBox="0 0 52 68" fill="none" xmlns="http://www.w3.org/2000/svg">
<path d="M20.3971 0C20.8322 0.0870332 20.9551 0.215894 21.2264 0.533124C21.3096 0.626992 21.393 0.720674 21.4766 0.814186L21.6069 0.960386C21.8515 1.228 22.1109 1.48097 22.3703 1.73405L22.4009 1.76389C22.6198 1.97926 22.8269 2.19958 23.0269 2.43269C23.3716 2.83156 23.7487 3.19798 24.1263 3.565L24.2627 3.69762L24.4495 3.88181L24.6193 4.0476C24.6844 4.12155 24.7146 4.15599 24.7287 4.19611C24.741 4.2311 24.741 4.2704 24.741 4.34397H24.899C24.9536 4.39935 24.9838 4.43008 25.0129 4.46187C25.0491 4.50143 25.0835 4.54267 25.1606 4.63521C25.3796 4.89313 25.604 5.1353 25.8468 5.37073C26.1549 5.25228 26.365 5.03503 26.587 4.80554C26.6116 4.78014 26.6363 4.75459 26.6613 4.729L26.8012 4.58753C27.0735 4.31034 27.3329 4.02621 27.5841 3.72971C27.8128 3.47601 28.056 3.23647 28.2992 2.99685C28.3474 2.94942 28.396 2.90156 28.444 2.85401C28.7262 2.57365 28.9939 2.28797 29.2507 1.9841C29.4722 1.73714 29.7086 1.50491 29.9452 1.27256L30.0504 1.1692C30.3402 0.88231 30.6114 0.587829 30.8649 0.267796C30.904 0.230653 30.9299 0.206071 30.9592 0.186748C31.0167 0.148931 31.0874 0.131254 31.2965 0.0789839L31.3755 8.52998L33.271 9.00387C33.6575 9.12145 34.0362 9.23995 34.4162 9.37409L34.7054 9.47532C37.8349 10.596 40.6399 12.3625 43.1437 14.5326L43.3365 14.6982C44.2933 15.5385 45.2101 16.445 45.987 17.4549C46.0727 17.5622 46.1586 17.6695 46.2446 17.7766C46.8695 18.5604 47.4391 19.3639 47.9615 20.2192L48.0639 20.3867C48.8493 21.6808 49.5395 22.9957 50.094 24.4052L50.1727 24.6027C50.9602 26.6005 51.4322 28.6493 51.7166 30.7708C51.7463 30.9926 51.7784 31.2139 51.8116 31.4352C52.6955 37.7916 50.3879 44.6222 46.5939 49.6635C46.4192 49.8916 46.2411 50.1162 46.0597 50.3378C46.0056 50.4343 45.9297 50.5183 45.8439 50.6133C45.8199 50.6399 45.7951 50.6673 45.7698 50.6961L45.652 50.8326C45.222 51.3272 44.7794 51.8101 44.3284 52.2856L44.1411 52.4831C43.4133 53.2303 43.1811 53.4688 42.9052 53.6347C42.846 53.6703 42.7849 53.7025 42.7164 53.7357C42.6396 53.8002 42.5633 53.8653 42.4872 53.9306C41.2031 55.0208 39.7678 55.9668 38.2799 56.7622C37.7735 57.0404 37.259 57.3004 36.7352 57.5441C36.0775 57.8526 35.4078 58.1328 34.7265 58.3865L34.4053 58.5075C34.1721 58.593 33.9377 58.6775 33.6997 58.7486L33.5003 58.8145L33.2966 58.8823C33.199 58.9024 33.1237 58.9062 33.0497 58.8984C32.9922 58.907 32.9343 58.9143 32.8761 58.92C32.8535 58.8974 32.8358 58.8734 32.8221 58.8482L32.7971 58.8411L32.7965 58.7865C32.772 58.7054 32.7759 58.6155 32.7799 58.5233C32.7816 58.4844 32.7833 58.4451 32.7829 58.406L32.7794 58.1197L32.7769 57.8028L32.7734 57.4713C32.7631 56.4613 32.7579 55.4513 32.7538 54.4413C32.7507 53.6945 32.7454 52.9478 32.7369 52.2011C32.7311 51.6763 32.7281 51.1515 32.727 50.6266C32.7263 50.3131 32.7244 49.9996 32.7196 49.6861C32.715 49.3909 32.7139 49.0958 32.7153 48.8006C32.7152 48.6409 32.7116 48.4812 32.7078 48.3216C32.7112 48.0253 32.7131 47.8567 32.7334 47.7402C32.7596 47.5872 32.8174 47.5249 32.9511 47.3805L32.9543 47.3784L32.9553 47.3772C33.1354 47.2551 33.3087 47.1595 33.508 47.0728C33.6006 47.0163 33.6925 46.9584 33.7832 46.8988L34.0411 46.7372C37.4627 44.5539 39.7192 41.1448 40.6163 37.2002C41.4557 33.2284 40.6621 29.0113 38.4674 25.5998C37.9378 24.8038 37.3228 24.0733 36.6672 23.3785L36.4948 23.1906C35.1004 21.7256 33.2142 20.5425 31.2965 19.9033V67.45C30.9761 67.3699 30.9119 67.3316 30.6927 67.1091L30.5306 66.9457L30.3635 66.7737L30.1992 66.6082C29.9404 66.3455 29.6896 66.079 29.4494 65.7991C29.1316 65.4313 28.7867 65.0918 28.4407 64.7511L28.3742 64.6857C27.9539 64.2717 27.5419 63.8574 27.1575 63.4097C26.9598 63.1812 26.7534 62.9623 26.5428 62.7457L26.4214 62.6153C26.3672 62.5579 26.3356 62.5244 26.302 62.4932C26.2553 62.4496 26.2047 62.4103 26.0837 62.3162C25.7962 62.3285 25.6406 62.4923 25.457 62.6856C25.4374 62.7063 25.4174 62.7273 25.397 62.7485L25.1862 62.9637L24.9681 63.19C24.8252 63.3378 24.6818 63.4851 24.538 63.6321L24.3461 63.8311C24.2567 63.9125 24.2179 63.9478 24.1724 63.9631C24.1375 63.9748 24.0987 63.9748 24.0302 63.9748L23.971 64.1131C23.8578 64.3168 23.7313 64.4536 23.5563 64.6067H23.3984V64.7646H23.2404L23.1756 64.9074C23.0834 65.0787 22.9933 65.1884 22.8555 65.3242L22.7174 65.4615L22.5688 65.6069L22.4159 65.7585C22.2551 65.9179 22.0937 66.0768 21.9323 66.2357C21.7706 66.3951 21.6091 66.5547 21.4478 66.7146C21.3474 66.8139 21.2469 66.9131 21.1461 67.012C20.8991 67.2472 20.8991 67.2472 20.713 67.529H20.3971V59.236L19.6862 59.157C19.5607 59.1312 19.4357 59.1023 19.3123 59.0678L19.1184 59.0137L18.9162 58.9546L18.6993 58.8916C17.3511 58.4897 16.0602 57.9403 14.7894 57.3404L14.6195 57.2602C12.4951 56.2484 10.4413 54.9129 8.71587 53.3087C8.56682 53.1701 8.4142 53.0387 8.25864 52.9076C7.43956 52.1917 6.69227 51.4041 6.02248 50.548C5.95114 50.4616 5.87955 50.3755 5.80775 50.2895C5.12955 49.4709 4.5419 48.5993 3.96897 47.7047L3.86754 47.5469C1.78158 44.2712 0.504173 40.5057 0.0988881 36.6473L0.0763275 36.4471C0.000453599 35.6838 0.000331385 34.9174 0.000209186 34.1511L0 33.757C0.00135027 32.4937 0.0516552 31.2619 0.256851 30.0129L0.297922 29.7578C1.00168 25.5107 2.70943 21.4665 5.39063 18.0867L5.57451 17.8547C5.74776 17.6403 5.92407 17.4289 6.10146 17.2179L6.30879 16.9662C7.19532 15.9001 8.16715 14.9124 9.26072 14.0587C9.36111 13.9762 9.46126 13.8933 9.56121 13.8103C10.1762 13.3005 10.7964 12.8281 11.4722 12.4001L11.7292 12.2316C13.6753 10.9564 15.7081 9.98323 17.9141 9.24081L18.1293 9.16827L18.5054 9.04459C18.5676 9.02816 18.6047 9.01835 18.6424 9.0125C18.6981 9.00387 18.7551 9.00387 18.8964 9.00387C18.9112 10.5005 18.9223 11.9972 18.9292 13.4939C18.9324 14.1888 18.9369 14.8837 18.9441 15.5787C18.9504 16.1843 18.9545 16.79 18.9559 17.3957C18.9567 17.7164 18.9586 18.0371 18.9632 18.3578C18.9675 18.6598 18.9688 18.9616 18.9679 19.2635C18.9681 19.3743 18.9693 19.4851 18.9718 19.5958C18.9838 20.1727 18.9875 20.3519 18.914 20.49C18.8809 20.5523 18.8321 20.6062 18.7613 20.6845C18.5987 20.7878 18.4435 20.8596 18.2646 20.93C18.1657 20.9868 18.0676 21.045 17.9709 21.1053L17.8241 21.1932C15.6486 22.5149 13.883 24.3921 12.6569 26.6167L12.5756 26.7633C11.7891 28.2011 11.2976 29.7483 10.9983 31.3556L10.9539 31.5803C10.8135 32.3677 10.809 33.15 10.8107 33.9471L10.8108 34.1639C10.8134 35.3074 10.8868 36.4008 11.1563 37.5161L11.1998 37.7057C11.9893 41.083 13.9989 44.0571 16.7639 46.1251L16.999 46.3046C18.0152 47.0473 19.1719 47.5902 20.3181 48.0996L20.3971 0Z" fill="#FFBBB5"/>
</svg>
