<svg width="37" height="48" viewBox="0 0 37 48" fill="none" xmlns="http://www.w3.org/2000/svg">
<path d="M14.5133 0C14.8229 0.0618637 14.9103 0.153459 15.1034 0.378947C15.1626 0.44567 15.2219 0.512259 15.2814 0.578728L15.3741 0.682648C15.5482 0.872869 15.7327 1.05268 15.9173 1.23257L15.9391 1.25378C16.0949 1.40687 16.2422 1.56347 16.3845 1.72917C16.6298 2.01269 16.8981 2.27314 17.1668 2.53402L17.2638 2.62829L17.3968 2.75921L17.5176 2.87706C17.5639 2.92962 17.5854 2.9541 17.5955 2.98262C17.6042 3.00749 17.6042 3.03543 17.6042 3.08772H17.7166C17.7554 3.12708 17.777 3.14893 17.7977 3.17152C17.8234 3.19965 17.8479 3.22895 17.9028 3.29474C18.0586 3.47806 18.2182 3.6502 18.391 3.81754C18.6102 3.73335 18.7597 3.57893 18.9177 3.4158C18.9352 3.39775 18.9527 3.37959 18.9705 3.3614L19.0701 3.26084C19.2639 3.06382 19.4484 2.86185 19.6271 2.6511C19.7899 2.47077 19.9629 2.3005 20.136 2.13018C20.1703 2.09647 20.2048 2.06245 20.239 2.02865C20.4398 1.82937 20.6303 1.6263 20.813 1.41031C20.9706 1.23477 21.1388 1.0697 21.3072 0.904544L21.382 0.831072C21.5882 0.627151 21.7812 0.417832 21.9615 0.190351C21.9894 0.16395 22.0078 0.146477 22.0287 0.132741C22.0696 0.105861 22.1199 0.093296 22.2686 0.0561422L22.3249 6.06316L23.6736 6.4C23.9486 6.48358 24.2181 6.56781 24.4885 6.66316L24.6942 6.73512C26.921 7.53167 28.9169 8.78736 30.6984 10.3298L30.8356 10.4476C31.5164 11.0449 32.1687 11.6892 32.7215 12.407C32.7825 12.4833 32.8436 12.5596 32.9048 12.6357C33.3495 13.1928 33.7547 13.7639 34.1265 14.3719L34.1993 14.491C34.7582 15.4108 35.2493 16.3454 35.6438 17.3474L35.6998 17.4878C36.2601 18.9078 36.596 20.3641 36.7983 21.8721C36.8195 22.0298 36.8423 22.187 36.8659 22.3443C37.4949 26.8625 35.8529 31.7177 33.1534 35.3011C33.0291 35.4632 32.9023 35.6229 32.7733 35.7804C32.7347 35.849 32.6808 35.9087 32.6197 35.9762C32.6026 35.9951 32.585 36.0146 32.567 36.0351L32.4832 36.1321C32.1772 36.4837 31.8623 36.827 31.5414 37.1649L31.4081 37.3053C30.8903 37.8364 30.725 38.0059 30.5287 38.1239C30.4866 38.1492 30.4431 38.1721 30.3944 38.1957C30.3397 38.2415 30.2855 38.2878 30.2312 38.3342C29.3176 39.1091 28.2963 39.7815 27.2376 40.3469C26.8773 40.5447 26.5112 40.7294 26.1385 40.9027C25.6705 41.122 25.194 41.3211 24.7092 41.5015L24.4807 41.5875C24.3148 41.6482 24.148 41.7083 23.9787 41.7589L23.8367 41.8057L23.6918 41.8539C23.6224 41.8681 23.5688 41.8708 23.5162 41.8653C23.4752 41.8714 23.434 41.8766 23.3926 41.8807C23.3765 41.8646 23.364 41.8475 23.3542 41.8296L23.3364 41.8246L23.336 41.7858C23.3185 41.7281 23.3213 41.6642 23.3241 41.5987C23.3253 41.5711 23.3266 41.5431 23.3263 41.5153L23.3238 41.3118L23.322 41.0866L23.3195 40.8509C23.3122 40.133 23.3085 39.4151 23.3056 38.6972C23.3034 38.1664 23.2996 37.6356 23.2935 37.1048C23.2895 36.7318 23.2873 36.3588 23.2866 35.9857C23.2861 35.7628 23.2847 35.54 23.2812 35.3172C23.278 35.1073 23.2772 34.8976 23.2782 34.6878C23.2781 34.5742 23.2755 34.4607 23.2729 34.3472C23.2753 34.1367 23.2767 34.0168 23.2911 33.934C23.3097 33.8253 23.3508 33.7809 23.446 33.6783L23.4482 33.6768L23.449 33.676C23.5771 33.5892 23.7005 33.5212 23.8422 33.4597C23.9081 33.4195 23.9735 33.3783 24.038 33.336L24.2215 33.2211C26.6561 31.6692 28.2617 29.246 28.9 26.4421C29.4973 23.6189 28.9327 20.6214 27.3711 18.1965C26.9942 17.6307 26.5566 17.1115 26.0901 16.6175L25.9674 16.484C24.9753 15.4427 23.6332 14.6017 22.2687 14.1474V47.9439C22.0407 47.8869 21.995 47.8597 21.839 47.7015L21.7237 47.5854L21.6048 47.4632L21.4879 47.3455C21.3038 47.1588 21.1253 46.9693 20.9544 46.7704C20.7283 46.509 20.4829 46.2676 20.2366 46.0255L20.1893 45.979C19.8903 45.6847 19.5971 45.3902 19.3236 45.072C19.183 44.9095 19.0361 44.754 18.8862 44.6L18.7998 44.5074C18.7612 44.4665 18.7388 44.4427 18.7149 44.4205C18.6817 44.3896 18.6457 44.3616 18.5596 44.2947C18.355 44.3034 18.2443 44.4199 18.1137 44.5573C18.0997 44.572 18.0855 44.5869 18.0709 44.602L17.921 44.7549L17.7658 44.9158C17.6641 45.0209 17.562 45.1255 17.4598 45.23L17.3232 45.3715C17.2595 45.4294 17.232 45.4545 17.1996 45.4654C17.1748 45.4737 17.1472 45.4737 17.0984 45.4737L17.0563 45.5719C16.9757 45.7167 16.8858 45.814 16.7612 45.9228H16.6488V46.0351H16.5364L16.4903 46.1366C16.4247 46.2583 16.3606 46.3363 16.2626 46.4328L16.1643 46.5304L16.0585 46.6338L15.9498 46.7415C15.8354 46.8548 15.7205 46.9678 15.6057 47.0807C15.4906 47.1941 15.3757 47.3075 15.2609 47.4211C15.1895 47.4917 15.118 47.5622 15.0463 47.6325C14.8705 47.7997 14.8705 47.7997 14.7381 48H14.5133V42.1053L14.0075 42.0491C13.9182 42.0308 13.8293 42.0102 13.7415 41.9857L13.6035 41.9473L13.4596 41.9053L13.3053 41.8605C12.3459 41.5748 11.4274 41.1843 10.5232 40.7579L10.4023 40.7009C8.89074 39.9817 7.42939 39.0324 6.20168 37.8921C6.09562 37.7936 5.98703 37.7002 5.87634 37.607C5.29354 37.0982 4.76181 36.5383 4.28523 35.9298C4.23446 35.8684 4.18352 35.8072 4.13244 35.7461C3.64988 35.1642 3.23173 34.5447 2.82408 33.9088L2.75191 33.7966C1.26766 31.4682 0.358739 28.7917 0.0703627 26.0491L0.05431 25.9068C0.000322753 25.3642 0.000235793 24.8195 0.000148844 24.2748L0 23.9947C0.000960771 23.0967 0.0367547 22.2211 0.182759 21.3333L0.211983 21.152C0.712733 18.1332 1.92787 15.2585 3.83564 12.8561L3.96648 12.6912C4.08975 12.5388 4.2152 12.3885 4.34143 12.2386L4.48895 12.0596C5.11975 11.3019 5.81124 10.5998 6.58936 9.99298C6.66079 9.93433 6.73205 9.87547 6.80317 9.81645C7.24076 9.45409 7.68208 9.11826 8.16291 8.81404L8.34577 8.6943C9.73047 7.7879 11.1769 7.09614 12.7466 6.56842L12.8997 6.51686L13.1673 6.42895C13.2115 6.41727 13.238 6.41029 13.2648 6.40614C13.3044 6.4 13.345 6.4 13.4455 6.4C13.456 7.46383 13.464 8.52765 13.4688 9.59153C13.4712 10.0855 13.4743 10.5794 13.4795 11.0734C13.4839 11.5039 13.4868 11.9344 13.4878 12.365C13.4884 12.593 13.4898 12.8209 13.4931 13.0489C13.4961 13.2635 13.4971 13.478 13.4964 13.6926C13.4965 13.7714 13.4974 13.8501 13.4991 13.9288C13.5077 14.3388 13.5103 14.4662 13.458 14.5644C13.4345 14.6087 13.3997 14.647 13.3494 14.7026C13.2337 14.7761 13.1232 14.8271 12.996 14.8772C12.9256 14.9175 12.8558 14.9589 12.787 15.0018L12.6825 15.0643C11.1346 16.0037 9.87829 17.3381 9.00588 18.9193L8.94801 19.0235C8.38843 20.0455 8.03868 21.1453 7.82572 22.2877L7.79413 22.4475C7.69419 23.0071 7.69102 23.5632 7.69225 24.1298L7.69228 24.2839C7.69418 25.0967 7.74637 25.8739 7.93811 26.6667L7.96909 26.8015C8.53084 29.2021 9.96074 31.3161 11.9282 32.786L12.0955 32.9136C12.8185 33.4415 13.6416 33.8274 14.4571 34.1895L14.5133 0Z" fill="#FFBBB5"/>
</svg>
